# xmcd
#
# Track frame offsets: 
#        150
#        97435
#        203701
#
# Disc length: 3768 seconds
#
# Revision: 0
# Processed by: cddbd v1.5.2PL0 Copyright (c) Steve Scherf et al.
# Submitted via: ExactAudioCopy v0.99pb5
#
DISCID=270eb603
DTITLE=Yes - Tales From Topographic Oceans - Disc 2 (2009 SHM-CD WPCR-
DTITLE=13520)
DYEAR=1900
DGENRE=
TTITLE0=Ritual (Nous Sommes Du Soleil)
TTITLE1=Dance Of The Dawn (Studio Run-Through)
TTITLE2=Giants Under The Sun (Studio Run-Through)
EXTD=
EXTT0=
EXTT1=
EXTT2=
PLAYORDER=
